<?xml version="1.0" standalone="no"?>
<!DOCTYPE svg PUBLIC "-//W3C//DTD SVG 20010904//EN"
 "http://www.w3.org/TR/2001/REC-SVG-20010904/DTD/svg10.dtd">
<svg version="1.0" xmlns="http://www.w3.org/2000/svg"
 width="800.000000pt" height="304.000000pt" viewBox="0 0 800.000000 304.000000"
 preserveAspectRatio="xMidYMid meet">

<g transform="translate(0.000000,304.000000) scale(0.100000,-0.100000)"
fill="#fff" stroke="none">
<path d="M280 2595 c0 -231 0 -235 21 -235 l20 0 -20 -29 c-20 -28 -21 -42
-21 -334 0 -290 -1 -305 -19 -310 -18 -4 -19 -18 -20 -261 l-1 -256 399 0
c282 0 408 3 426 12 18 8 31 8 49 0 79 -36 284 87 342 206 22 45 23 46 24 17
1 -16 5 -68 9 -114 13 -131 -24 -121 465 -122 322 0 407 -3 392 -12 -163 -104
-383 -273 -371 -285 3 -3 74 41 158 96 84 56 156 102 160 102 4 0 7 -8 7 -18
0 -11 6 -32 14 -48 31 -63 32 -62 -114 -123 -196 -83 -462 -214 -484 -240 -15
-17 -17 -24 -7 -34 11 -11 58 6 121 44 8 5 26 14 40 20 14 6 81 40 150 74 161
81 310 146 321 139 5 -3 9 -15 9 -28 0 -13 9 -58 21 -102 11 -43 33 -137 49
-209 50 -230 122 -440 107 -310 -13 109 -28 205 -47 310 -12 61 -24 172 -27
247 l-6 138 38 16 c21 9 73 19 115 23 42 5 87 14 100 21 39 20 70 52 70 71 0
33 -38 33 -103 0 -54 -26 -177 -70 -199 -71 -5 0 -8 11 -8 25 0 19 -5 25 -21
25 -18 0 -20 4 -14 23 16 51 17 77 4 77 -9 1 -7 6 5 15 14 10 45 15 102 15
l81 0 7 42 c4 23 12 48 18 55 8 10 8 20 0 37 -6 13 -14 89 -18 168 l-7 143
-336 3 c-185 2 -338 6 -341 9 -3 2 -7 51 -8 108 -4 97 -3 103 17 110 21 6 21
8 21 496 l0 489 -225 0 -225 0 0 -497 0 -496 -41 64 c-22 35 -52 74 -66 85
l-26 22 36 58 c53 86 69 137 74 245 6 112 -5 172 -52 274 -52 111 -138 182
-278 229 -41 14 -108 16 -468 16 l-419 -1 0 -234z m712 -148 c31 -17 50 -38
67 -72 22 -44 23 -52 12 -94 -6 -25 -25 -59 -42 -76 l-29 -30 -145 -3 -145 -3
0 145 0 145 110 -1 c60 -1 113 1 116 5 10 9 8 10 56 -16z m-8 -617 c6 0 28
-12 49 -26 28 -18 35 -29 28 -38 -5 -6 -10 -31 -9 -55 0 -23 -7 -60 -17 -81
-25 -56 -62 -70 -182 -70 -80 0 -104 -4 -131 -20 -35 -22 -62 -26 -62 -10 0 6
-11 10 -24 10 -14 0 -28 5 -32 11 -3 6 -15 8 -26 6 -31 -8 -51 2 -37 19 14 17
100 19 117 2 14 -14 14 -13 13 73 -1 59 2 67 19 72 17 4 20 14 20 56 l0 51
119 0 c83 0 122 4 127 12 6 9 9 9 12 0 2 -7 9 -12 16 -12z m-539 -190 c16 -18
16 -20 2 -20 -10 0 -17 5 -17 10 0 6 -9 10 -20 10 -11 0 -20 5 -20 10 0 17 36
11 55 -10z m25 10 c0 -5 -4 -10 -10 -10 -5 0 -10 5 -10 10 0 6 5 10 10 10 6 0
10 -4 10 -10z m90 0 c0 -5 -12 -10 -27 -9 -25 0 -26 1 -8 9 27 12 35 12 35 0z
m80 0 c0 -5 -9 -10 -20 -10 -11 0 -20 5 -20 10 0 6 9 10 20 10 11 0 20 -4 20
-10z m1100 -10 c0 -5 -22 -10 -50 -10 -27 0 -50 5 -50 10 0 6 23 10 50 10 28
0 50 -4 50 -10z m-190 -80 c0 -5 -2 -10 -4 -10 -3 0 -8 5 -11 10 -3 6 -1 10 4
10 6 0 11 -4 11 -10z m-106 -6 c24 -9 19 -24 -8 -24 -26 0 -40 12 -29 24 8 8
17 8 37 0z m186 -14 c0 -5 -2 -10 -4 -10 -3 0 -8 5 -11 10 -3 6 -1 10 4 10 6
0 11 -4 11 -10z m-70 -30 c0 -11 -48 -25 -56 -17 -4 3 -3 10 1 16 8 14 55 14
55 1z m-273 -86 c-3 -3 -12 -4 -19 -1 -8 3 -5 6 6 6 11 1 17 -2 13 -5z"/>
<path d="M2707 2812 c-2 -10 -2 -53 1 -95 4 -67 7 -77 23 -77 11 0 19 -4 19
-10 0 -5 -9 -10 -20 -10 -19 0 -20 -7 -21 -232 -1 -128 -1 -284 1 -346 2 -108
1 -114 -19 -119 -21 -5 -21 -9 -21 -267 0 -295 4 -336 31 -336 10 0 21 -4 24
-10 6 -9 1 -11 -35 -14 -9 -1 -14 -9 -12 -21 2 -11 6 -34 9 -52 3 -20 13 -34
26 -39 12 -5 235 -11 495 -14 l473 -5 -115 -98 c-64 -54 -116 -103 -116 -110
0 -7 -20 -46 -44 -87 -25 -41 -43 -76 -40 -79 2 -3 27 20 54 50 l50 54 29 -35
c17 -19 31 -41 31 -48 0 -7 9 -31 21 -54 24 -47 17 -58 -42 -58 -47 0 -96 -34
-136 -94 -60 -91 -14 -100 135 -26 55 27 103 54 106 59 8 12 157 62 199 67 18
2 52 10 77 19 27 10 57 14 78 10 23 -4 42 -1 65 13 18 11 75 27 127 36 52 10
105 19 116 22 17 3 24 -4 38 -39 21 -57 21 -59 -15 -80 l-31 -17 6 27 c15 59
13 68 -18 71 -35 4 -84 -15 -96 -38 -7 -13 -2 -24 21 -46 17 -16 39 -45 49
-64 10 -19 32 -48 49 -65 28 -26 34 -28 61 -18 33 12 40 9 33 -16 -5 -19 -20
-26 -163 -77 -101 -36 -125 -53 -135 -96 -13 -50 37 -37 153 42 148 99 154
100 167 12 12 -81 20 -78 25 7 l5 84 100 38 100 37 18 -41 c18 -40 18 -43 1
-72 -77 -134 -95 -168 -89 -173 9 -9 38 11 50 34 6 11 23 41 39 68 34 59 42
52 61 -58 l12 -71 37 1 c56 2 90 32 97 86 4 24 20 71 37 104 39 78 83 186 78
192 -7 6 -87 -120 -125 -196 -31 -62 -37 -68 -56 -54 -18 13 -65 88 -65 103 0
8 27 44 60 81 54 60 66 68 114 78 56 12 98 40 58 40 -11 0 -39 -7 -63 -15 -24
-9 -49 -13 -55 -11 -7 3 -45 -7 -84 -21 -54 -18 -75 -22 -80 -13 -13 21 -52
270 -47 292 4 12 2 27 -4 34 -5 7 -11 44 -12 83 0 39 -4 71 -8 71 -4 0 -15 -7
-24 -16 -12 -13 -15 -29 -10 -78 5 -60 5 -61 -27 -81 -27 -17 -33 -27 -33 -56
-1 -37 -26 -99 -48 -118 -8 -6 -27 -14 -43 -17 -26 -5 -32 -2 -43 23 -40 87
-51 165 -26 200 32 46 -32 53 -102 11 -34 -20 -44 -52 -20 -61 22 -8 59 -77
44 -82 -20 -6 -166 -25 -193 -25 -23 0 -25 3 -20 28 4 15 30 73 57 129 28 56
48 107 44 114 -4 6 -20 9 -39 5 -263 -47 -390 -80 -454 -117 -18 -10 -37 -19
-41 -19 -18 0 6 60 32 80 15 12 27 28 27 35 0 7 24 34 53 59 l54 46 233 2 234
3 34 107 34 107 177 3 c267 5 244 11 277 -80 18 -49 40 -89 60 -110 33 -32 34
-32 128 -32 84 0 95 -2 101 -19 9 -30 3 -94 -11 -118 -12 -19 -11 -22 6 -28
14 -4 20 -15 20 -36 0 -28 30 -69 50 -69 6 0 29 12 51 26 37 23 39 27 26 42
-9 9 -18 29 -22 44 -5 21 -2 29 15 38 27 14 55 -7 65 -48 3 -15 8 -35 11 -44
4 -12 -6 -23 -35 -38 -41 -20 -54 -40 -26 -40 8 0 38 9 67 21 65 26 169 51
308 74 109 19 167 42 73 29 -59 -7 -66 -2 -25 20 15 8 51 37 81 65 38 34 66
51 92 55 21 3 39 11 41 16 3 9 80 13 376 19 l42 1 0 215 0 215 -22 1 c-13 1
-120 0 -238 -1 -240 -1 -287 7 -370 63 -158 108 -226 287 -168 447 20 57 27
65 51 68 19 2 35 15 52 41 32 51 131 116 214 141 38 11 75 20 84 20 9 0 18 4
21 9 3 4 29 4 58 0 70 -12 339 -12 350 -1 5 5 7 100 6 213 l-3 204 -250 3
c-191 2 -267 -1 -322 -13 -155 -31 -316 -113 -427 -215 -72 -67 -170 -196
-187 -247 -7 -21 -23 -60 -35 -88 -13 -27 -24 -62 -24 -76 0 -20 -6 -28 -25
-33 -22 -6 -25 -11 -25 -56 0 -28 -3 -50 -8 -50 -4 0 -14 20 -23 45 -13 36
-14 47 -4 53 13 7 -20 117 -159 532 l-53 155 -190 3 -190 2 -28 -87 c-15 -49
-38 -117 -50 -153 -12 -36 -31 -94 -42 -130 -22 -69 -69 -207 -112 -327 -19
-53 -31 -73 -45 -75 -12 -2 -23 -15 -28 -33 -5 -16 -27 -79 -48 -140 -21 -60
-59 -175 -85 -255 -26 -80 -51 -149 -56 -155 -5 -5 -9 18 -9 58 l0 67 -390 0
c-305 0 -390 3 -391 13 -1 6 -2 49 -3 94 l-1 83 373 0 372 0 0 120 c0 114 1
120 20 120 20 0 21 5 18 88 l-3 87 -370 1 -370 1 -3 90 -3 90 150 8 c82 4 155
4 160 0 6 -3 118 -3 248 1 131 5 229 10 218 12 -43 7 -50 15 -20 21 l30 6 3
197 2 198 -604 0 c-573 0 -604 -1 -609 -18z m123 -92 c0 -13 -30 -13 -50 0
-11 7 -7 10 18 10 17 0 32 -4 32 -10z m1737 -685 c7 -27 20 -72 28 -100 7 -27
17 -65 20 -82 l7 -33 -85 0 -85 0 23 88 c13 48 28 102 34 120 11 35 11 37 11
53 0 6 7 9 16 7 11 -2 22 -22 31 -53z m697 -629 c48 -45 195 -146 213 -146 18
0 16 -15 -2 -30 -11 -9 -14 -22 -10 -41 8 -34 -8 -44 -85 -54 -30 -4 -84 -16
-118 -27 -70 -21 -92 -19 -92 11 0 43 10 51 66 51 l54 0 -20 40 c-11 21 -20
46 -20 54 0 9 -6 30 -14 48 -7 18 -24 65 -36 103 -12 39 -24 77 -27 85 -2 8 8
-1 23 -20 15 -19 46 -52 68 -74z m690 -132 c27 -10 7 -24 -34 -24 -60 0 -63
27 -3 29 12 1 28 -2 37 -5z m191 -24 c3 -5 -3 -10 -14 -10 -12 0 -21 5 -21 10
0 6 6 10 14 10 8 0 18 -4 21 -10z m-400 -70 c96 -16 98 -17 57 -23 -24 -4 -48
-5 -54 -1 -5 3 -35 2 -66 -4 -140 -27 -151 -24 -109 29 17 22 27 27 47 22 14
-3 70 -13 125 -23z m-285 -66 c0 -3 -5 -15 -11 -26 -12 -23 4 -98 21 -98 5 0
18 17 29 38 23 46 37 58 74 67 24 6 27 5 27 -19 0 -14 -12 -38 -27 -55 -23
-23 -44 -32 -113 -45 -125 -24 -119 -26 -108 42 12 78 30 102 73 102 19 0 35
-3 35 -6z m-1578 -116 c-7 -7 -12 -43 -13 -87 -1 -103 -9 -126 -39 -126 -23 0
-25 4 -28 52 -4 66 41 172 73 173 15 0 16 -3 7 -12z m129 -110 c-7 -29 -15
-59 -20 -67 -8 -13 -89 -33 -102 -25 -8 4 12 104 31 157 10 27 22 39 40 43 14
3 30 7 35 8 18 5 27 -61 16 -116z m-304 -1 c20 -29 49 -115 41 -122 -2 -1 -13
-6 -25 -9 -17 -5 -23 -3 -23 7 0 8 -11 22 -24 30 -29 19 -39 78 -18 108 18 26
23 24 49 -14z m881 -76 c-2 -20 -10 -27 -35 -32 -40 -8 -41 0 -6 60 25 44 26
44 35 21 5 -13 8 -35 6 -49z m-85 -78 c-10 -28 -22 -40 -44 -46 -16 -4 -19 -2
-14 14 4 11 2 19 -4 19 -26 0 -8 19 22 23 17 2 35 5 39 5 4 1 5 -6 1 -15z
m111 -84 l7 -46 -83 -31 c-46 -16 -90 -33 -99 -37 -12 -4 -18 1 -21 20 -5 21
1 30 31 51 19 13 41 24 47 24 7 0 31 23 55 51 48 57 50 56 63 -32z m-261 17
c6 -14 -56 -50 -67 -39 -13 14 -5 30 22 40 37 15 39 15 45 -1z m137 -5 c0 -19
-55 -50 -67 -38 -10 11 6 37 29 47 34 13 38 12 38 -9z m-120 -55 c0 -8 -7 -17
-16 -20 -30 -11 -37 -6 -19 14 21 23 35 26 35 6z m348 -41 c-13 -29 -23 -32
-32 -9 -10 25 -7 32 12 37 27 6 32 -2 20 -28z"/>
<path d="M6369 2550 c3 -280 3 -280 -18 -280 l-21 0 0 -550 1 -550 225 0 c172
0 224 3 225 13 1 6 1 145 0 307 l-3 295 239 -2 238 -3 2 -247 c2 -275 11 -334
49 -352 15 -7 88 -11 189 -11 166 0 209 5 183 21 -9 7 -10 11 -2 17 6 4 14 17
18 29 5 16 2 23 -14 28 -27 8 -25 17 6 36 l26 16 -1 541 c0 525 1 542 19 542
18 0 19 11 20 215 l0 215 -227 -2 c-222 -3 -228 -4 -225 -23 2 -11 9 -23 15
-27 9 -6 8 -11 -3 -18 -11 -7 -15 -30 -15 -92 -1 -249 -5 -308 -19 -308 -14 0
-32 -86 -24 -120 3 -13 -29 -15 -234 -18 l-238 -2 0 44 c0 35 4 45 20 49 19 5
20 14 20 221 0 190 -2 216 -16 216 -8 0 -22 -7 -30 -15 -19 -19 -44 -19 -44
-1 0 8 -7 16 -15 20 -8 3 -15 9 -15 15 0 13 53 21 68 9 8 -7 12 -7 12 1 0 6 9
11 20 11 13 0 20 7 20 19 0 19 -9 20 -227 21 l-228 0 4 -280z m71 -1180 c0 -5
-7 -10 -15 -10 -8 0 -15 5 -15 10 0 6 7 10 15 10 8 0 15 -4 15 -10z m-32 -112
c-3 -7 -11 -13 -18 -13 -7 0 -15 6 -17 13 -3 7 4 12 17 12 13 0 20 -5 18 -12z"/>
<path d="M2865 1020 c-11 -4 -31 -19 -44 -33 -23 -25 -23 -27 -7 -61 13 -28
16 -68 16 -218 l0 -184 -43 -21 c-54 -26 -107 -70 -107 -89 0 -34 71 -3 140
60 39 37 286 174 295 164 2 -2 9 -60 14 -128 12 -134 38 -289 52 -305 11 -12
11 0 -1 163 -6 73 -7 139 -3 145 4 7 6 44 4 83 l-3 71 44 18 c68 28 221 75
245 75 20 0 40 16 32 25 -7 6 -146 -27 -229 -55 -47 -15 -87 -26 -89 -24 -8 8
-3 78 6 81 24 9 73 44 73 54 0 11 -25 8 -66 -8 -15 -5 -16 -2 -10 23 12 47 34
72 72 83 38 11 114 58 114 71 0 4 -17 3 -37 -4 -21 -7 -78 -25 -128 -41 -49
-15 -102 -36 -117 -47 -14 -10 -33 -18 -42 -18 -9 0 -44 -14 -77 -31 -34 -17
-64 -28 -67 -24 -3 3 0 29 7 58 23 100 24 109 10 118 -17 10 -28 10 -54 -1z
m235 -199 c5 -11 10 -22 10 -24 0 -2 -35 -17 -77 -32 -94 -33 -138 -68 -120
-97 10 -15 19 -18 46 -13 32 6 50 -4 51 -27 0 -4 -31 -24 -70 -43 l-70 -35 0
48 c0 27 3 70 6 96 6 44 11 50 67 88 54 36 94 54 134 57 7 1 17 -8 23 -18z
m11 -154 c-8 -8 -11 -1 -11 24 0 46 14 60 18 19 2 -18 -1 -37 -7 -43z"/>
<path d="M5672 968 c-23 -4 -64 -18 -90 -32 -43 -22 -156 -47 -272 -60 -51 -6
-149 -46 -169 -70 -11 -13 -9 -16 12 -22 30 -7 32 -2 -38 -149 -29 -60 -60
-133 -69 -162 -18 -54 -18 -125 -1 -121 5 2 37 65 72 141 34 76 64 142 68 145
9 9 24 -17 35 -63 26 -106 33 -120 65 -123 17 -1 45 7 65 19 l34 21 -27 20
c-39 28 -34 52 14 77 48 25 59 21 59 -24 0 -36 17 -56 30 -35 4 7 11 30 14 51
6 37 28 69 48 69 6 0 8 -10 5 -22 -43 -178 -46 -199 -47 -320 0 -71 4 -128 9
-128 19 0 29 30 40 130 23 200 60 346 89 354 9 2 31 8 47 12 l30 8 -32 5 -33
6 26 30 c14 17 23 23 21 15 -2 -8 3 -23 11 -33 14 -15 14 -24 3 -60 -7 -23
-16 -60 -21 -82 -5 -22 -22 -78 -38 -125 -30 -86 -31 -100 -8 -100 23 0 43 33
81 130 49 127 87 194 147 258 27 29 48 58 45 65 -6 20 -77 20 -136 -1 -31 -11
-92 -25 -136 -31 -44 -7 -121 -22 -172 -35 -78 -19 -93 -20 -98 -8 -8 22 -69
9 -106 -22 -41 -35 -55 -33 -29 4 26 37 36 42 146 79 60 20 92 27 100 20 8 -7
40 4 100 35 49 25 103 50 120 56 37 14 74 45 74 64 0 18 -35 24 -88 14z m-148
-109 c-13 -13 -53 -27 -109 -40 -110 -24 -118 -24 -79 0 18 11 34 25 36 31 5
16 150 50 163 39 6 -6 2 -17 -11 -30z m16 -133 c0 -14 -21 -58 -26 -54 -8 8 7
58 17 58 5 0 9 -2 9 -4z m-142 -68 c2 -11 -7 -17 -30 -21 -43 -6 -48 0 -19 24
27 22 44 20 49 -3z"/>
<path d="M4395 916 c-17 -12 -18 -18 -7 -52 29 -100 69 -96 64 5 -4 66 -17 76
-57 47z"/>
<path d="M4715 886 c-17 -7 -36 -21 -44 -30 -13 -15 -11 -20 16 -45 20 -18 35
-45 44 -79 11 -46 15 -51 33 -46 40 12 48 25 29 46 -17 19 -22 84 -12 143 5
25 -24 30 -66 11z"/>
</g>
</svg>
